<mxfile host="app.diagrams.net" modified="2023-09-01T14:04:07.578Z" agent="Mozilla/5.0 (Windows NT 10.0; Win64; x64) AppleWebKit/537.36 (KHTML, like Gecko) Chrome/116.0.0.0 Safari/537.36" etag="nP6phf-GokLGx27knvFm" version="21.6.9" type="device">
  <diagram name="Página-1" id="yDk6Ra9tHJULpmfYCeZ8">
    <mxGraphModel dx="1299" dy="780" grid="1" gridSize="10" guides="1" tooltips="1" connect="1" arrows="1" fold="1" page="1" pageScale="1" pageWidth="827" pageHeight="1169" math="0" shadow="0">
      <root>
        <mxCell id="0" />
        <mxCell id="1" parent="0" />
        <mxCell id="brn8bcqJcwjxRZUSFnzr-4" value="" style="endArrow=classic;html=1;rounded=0;exitX=0.5;exitY=1;exitDx=0;exitDy=0;entryX=0.5;entryY=0;entryDx=0;entryDy=0;" edge="1" parent="1">
          <mxGeometry width="50" height="50" relative="1" as="geometry">
            <mxPoint x="395.5" y="90" as="sourcePoint" />
            <mxPoint x="395.5" y="140" as="targetPoint" />
          </mxGeometry>
        </mxCell>
        <mxCell id="brn8bcqJcwjxRZUSFnzr-6" value="inicio" style="strokeWidth=2;html=1;shape=mxgraph.flowchart.start_1;whiteSpace=wrap;" vertex="1" parent="1">
          <mxGeometry x="345" y="30" width="100" height="60" as="geometry" />
        </mxCell>
        <mxCell id="brn8bcqJcwjxRZUSFnzr-7" value="salario;&lt;br&gt;irrf" style="rounded=1;whiteSpace=wrap;html=1;absoluteArcSize=1;arcSize=14;strokeWidth=2;" vertex="1" parent="1">
          <mxGeometry x="345" y="140" width="100" height="100" as="geometry" />
        </mxCell>
        <mxCell id="brn8bcqJcwjxRZUSFnzr-8" value="Digite o salario do funcionario" style="strokeWidth=2;html=1;shape=mxgraph.flowchart.display;whiteSpace=wrap;" vertex="1" parent="1">
          <mxGeometry x="328.34" y="280" width="133.33" height="80" as="geometry" />
        </mxCell>
        <mxCell id="brn8bcqJcwjxRZUSFnzr-9" value="" style="endArrow=classic;html=1;rounded=0;exitX=0.5;exitY=1;exitDx=0;exitDy=0;entryX=0.5;entryY=0;entryDx=0;entryDy=0;entryPerimeter=0;" edge="1" parent="1" source="brn8bcqJcwjxRZUSFnzr-7" target="brn8bcqJcwjxRZUSFnzr-8">
          <mxGeometry width="50" height="50" relative="1" as="geometry">
            <mxPoint x="435" y="140" as="sourcePoint" />
            <mxPoint x="485" y="90" as="targetPoint" />
          </mxGeometry>
        </mxCell>
        <mxCell id="brn8bcqJcwjxRZUSFnzr-10" value="" style="endArrow=classic;html=1;rounded=0;exitX=0.56;exitY=1.025;exitDx=0;exitDy=0;exitPerimeter=0;entryX=0.5;entryY=0.217;entryDx=0;entryDy=0;entryPerimeter=0;" edge="1" parent="1" target="brn8bcqJcwjxRZUSFnzr-11">
          <mxGeometry width="50" height="50" relative="1" as="geometry">
            <mxPoint x="394.50479999999993" y="360" as="sourcePoint" />
            <mxPoint x="394.5" y="398" as="targetPoint" />
            <Array as="points" />
          </mxGeometry>
        </mxCell>
        <mxCell id="brn8bcqJcwjxRZUSFnzr-11" value="salario;" style="html=1;strokeWidth=2;shape=manualInput;whiteSpace=wrap;rounded=1;size=26;arcSize=11;" vertex="1" parent="1">
          <mxGeometry x="345" y="380" width="100" height="60" as="geometry" />
        </mxCell>
        <mxCell id="brn8bcqJcwjxRZUSFnzr-20" value="" style="edgeStyle=orthogonalEdgeStyle;rounded=0;orthogonalLoop=1;jettySize=auto;html=1;" edge="1" parent="1" source="brn8bcqJcwjxRZUSFnzr-12" target="brn8bcqJcwjxRZUSFnzr-19">
          <mxGeometry relative="1" as="geometry" />
        </mxCell>
        <mxCell id="brn8bcqJcwjxRZUSFnzr-12" value="salario &amp;lt;=0" style="strokeWidth=2;html=1;shape=mxgraph.flowchart.decision;whiteSpace=wrap;" vertex="1" parent="1">
          <mxGeometry x="305" y="470" width="180" height="100" as="geometry" />
        </mxCell>
        <mxCell id="brn8bcqJcwjxRZUSFnzr-13" value="" style="endArrow=classic;html=1;rounded=0;exitX=0.5;exitY=1;exitDx=0;exitDy=0;entryX=0.5;entryY=0;entryDx=0;entryDy=0;entryPerimeter=0;" edge="1" parent="1" source="brn8bcqJcwjxRZUSFnzr-11" target="brn8bcqJcwjxRZUSFnzr-12">
          <mxGeometry width="50" height="50" relative="1" as="geometry">
            <mxPoint x="435" y="340" as="sourcePoint" />
            <mxPoint x="485" y="290" as="targetPoint" />
          </mxGeometry>
        </mxCell>
        <mxCell id="brn8bcqJcwjxRZUSFnzr-18" value="sim" style="endArrow=classic;html=1;rounded=0;exitX=1;exitY=0.5;exitDx=0;exitDy=0;exitPerimeter=0;entryX=1;entryY=0.5;entryDx=0;entryDy=0;entryPerimeter=0;" edge="1" parent="1" source="brn8bcqJcwjxRZUSFnzr-12" target="brn8bcqJcwjxRZUSFnzr-8">
          <mxGeometry width="50" height="50" relative="1" as="geometry">
            <mxPoint x="580" y="440" as="sourcePoint" />
            <mxPoint x="630" y="390" as="targetPoint" />
            <Array as="points">
              <mxPoint x="560" y="520" />
              <mxPoint x="560" y="320" />
            </Array>
          </mxGeometry>
        </mxCell>
        <mxCell id="brn8bcqJcwjxRZUSFnzr-24" value="" style="edgeStyle=orthogonalEdgeStyle;rounded=0;orthogonalLoop=1;jettySize=auto;html=1;" edge="1" parent="1" source="brn8bcqJcwjxRZUSFnzr-19" target="brn8bcqJcwjxRZUSFnzr-23">
          <mxGeometry relative="1" as="geometry" />
        </mxCell>
        <mxCell id="brn8bcqJcwjxRZUSFnzr-26" value="" style="edgeStyle=orthogonalEdgeStyle;rounded=0;orthogonalLoop=1;jettySize=auto;html=1;" edge="1" parent="1" source="brn8bcqJcwjxRZUSFnzr-19" target="brn8bcqJcwjxRZUSFnzr-25">
          <mxGeometry relative="1" as="geometry" />
        </mxCell>
        <mxCell id="brn8bcqJcwjxRZUSFnzr-19" value="salario &amp;lt;2112" style="rhombus;whiteSpace=wrap;html=1;strokeWidth=2;" vertex="1" parent="1">
          <mxGeometry x="355" y="660" width="80" height="80" as="geometry" />
        </mxCell>
        <mxCell id="brn8bcqJcwjxRZUSFnzr-23" value="irrf = 0;" style="rounded=1;whiteSpace=wrap;html=1;strokeWidth=2;" vertex="1" parent="1">
          <mxGeometry x="495" y="670" width="120" height="60" as="geometry" />
        </mxCell>
        <mxCell id="brn8bcqJcwjxRZUSFnzr-28" value="" style="edgeStyle=orthogonalEdgeStyle;rounded=0;orthogonalLoop=1;jettySize=auto;html=1;" edge="1" parent="1" source="brn8bcqJcwjxRZUSFnzr-25" target="brn8bcqJcwjxRZUSFnzr-27">
          <mxGeometry relative="1" as="geometry" />
        </mxCell>
        <mxCell id="brn8bcqJcwjxRZUSFnzr-34" value="" style="edgeStyle=orthogonalEdgeStyle;rounded=0;orthogonalLoop=1;jettySize=auto;html=1;" edge="1" parent="1" source="brn8bcqJcwjxRZUSFnzr-25" target="brn8bcqJcwjxRZUSFnzr-33">
          <mxGeometry relative="1" as="geometry" />
        </mxCell>
        <mxCell id="brn8bcqJcwjxRZUSFnzr-25" value="salario &amp;lt;2112" style="rhombus;whiteSpace=wrap;html=1;strokeWidth=2;" vertex="1" parent="1">
          <mxGeometry x="195" y="660" width="80" height="80" as="geometry" />
        </mxCell>
        <mxCell id="brn8bcqJcwjxRZUSFnzr-30" value="" style="edgeStyle=orthogonalEdgeStyle;rounded=0;orthogonalLoop=1;jettySize=auto;html=1;" edge="1" parent="1" source="brn8bcqJcwjxRZUSFnzr-27" target="brn8bcqJcwjxRZUSFnzr-29">
          <mxGeometry relative="1" as="geometry" />
        </mxCell>
        <mxCell id="brn8bcqJcwjxRZUSFnzr-36" value="" style="edgeStyle=orthogonalEdgeStyle;rounded=0;orthogonalLoop=1;jettySize=auto;html=1;" edge="1" parent="1" source="brn8bcqJcwjxRZUSFnzr-27" target="brn8bcqJcwjxRZUSFnzr-35">
          <mxGeometry relative="1" as="geometry" />
        </mxCell>
        <mxCell id="brn8bcqJcwjxRZUSFnzr-27" value="salario &amp;lt;2112" style="rhombus;whiteSpace=wrap;html=1;strokeWidth=2;" vertex="1" parent="1">
          <mxGeometry x="195" y="820" width="80" height="80" as="geometry" />
        </mxCell>
        <mxCell id="brn8bcqJcwjxRZUSFnzr-32" value="" style="edgeStyle=orthogonalEdgeStyle;rounded=0;orthogonalLoop=1;jettySize=auto;html=1;" edge="1" parent="1" source="brn8bcqJcwjxRZUSFnzr-29" target="brn8bcqJcwjxRZUSFnzr-31">
          <mxGeometry relative="1" as="geometry" />
        </mxCell>
        <mxCell id="brn8bcqJcwjxRZUSFnzr-38" value="" style="edgeStyle=orthogonalEdgeStyle;rounded=0;orthogonalLoop=1;jettySize=auto;html=1;" edge="1" parent="1" source="brn8bcqJcwjxRZUSFnzr-29" target="brn8bcqJcwjxRZUSFnzr-37">
          <mxGeometry relative="1" as="geometry" />
        </mxCell>
        <mxCell id="brn8bcqJcwjxRZUSFnzr-29" value="salario &amp;lt;2112" style="rhombus;whiteSpace=wrap;html=1;strokeWidth=2;" vertex="1" parent="1">
          <mxGeometry x="195" y="980" width="80" height="80" as="geometry" />
        </mxCell>
        <mxCell id="brn8bcqJcwjxRZUSFnzr-31" value="irrf = salario * 27.5 / 100 - 884.96" style="rounded=1;whiteSpace=wrap;html=1;strokeWidth=2;" vertex="1" parent="1">
          <mxGeometry x="175" y="1180" width="120" height="60" as="geometry" />
        </mxCell>
        <mxCell id="brn8bcqJcwjxRZUSFnzr-33" value="irrf = salario * 7.5 / 100 - 158 . 40" style="rounded=1;whiteSpace=wrap;html=1;strokeWidth=2;" vertex="1" parent="1">
          <mxGeometry x="15" y="670" width="120" height="60" as="geometry" />
        </mxCell>
        <mxCell id="brn8bcqJcwjxRZUSFnzr-35" value="irrf&amp;nbsp; = salario * 15 / 100 - 370.40" style="rounded=1;whiteSpace=wrap;html=1;strokeWidth=2;" vertex="1" parent="1">
          <mxGeometry x="15" y="830" width="120" height="60" as="geometry" />
        </mxCell>
        <mxCell id="brn8bcqJcwjxRZUSFnzr-37" value="irrf = salario * 22.5 / 100 - 651.73" style="rounded=1;whiteSpace=wrap;html=1;strokeWidth=2;" vertex="1" parent="1">
          <mxGeometry x="15" y="990" width="120" height="60" as="geometry" />
        </mxCell>
        <mxCell id="brn8bcqJcwjxRZUSFnzr-39" value="(&quot;O IRRF(Imposto de Renda Retido na Fonte) é %.2f, irrf);" style="strokeWidth=2;html=1;shape=mxgraph.flowchart.display;whiteSpace=wrap;" vertex="1" parent="1">
          <mxGeometry x="-320" y="782" width="260" height="156" as="geometry" />
        </mxCell>
        <mxCell id="brn8bcqJcwjxRZUSFnzr-40" value="fim" style="strokeWidth=2;html=1;shape=mxgraph.flowchart.terminator;whiteSpace=wrap;" vertex="1" parent="1">
          <mxGeometry x="-490" y="830" width="100" height="60" as="geometry" />
        </mxCell>
        <mxCell id="brn8bcqJcwjxRZUSFnzr-41" value="" style="endArrow=classic;html=1;rounded=0;entryX=1;entryY=0.5;entryDx=0;entryDy=0;entryPerimeter=0;exitX=0;exitY=0.5;exitDx=0;exitDy=0;exitPerimeter=0;" edge="1" parent="1" source="brn8bcqJcwjxRZUSFnzr-39" target="brn8bcqJcwjxRZUSFnzr-40">
          <mxGeometry width="50" height="50" relative="1" as="geometry">
            <mxPoint x="-390" y="1040" as="sourcePoint" />
            <mxPoint x="-340" y="990" as="targetPoint" />
          </mxGeometry>
        </mxCell>
        <mxCell id="brn8bcqJcwjxRZUSFnzr-42" value="" style="endArrow=classic;html=1;rounded=0;exitX=0;exitY=0.5;exitDx=0;exitDy=0;entryX=0.819;entryY=1.006;entryDx=0;entryDy=0;entryPerimeter=0;" edge="1" parent="1" source="brn8bcqJcwjxRZUSFnzr-37" target="brn8bcqJcwjxRZUSFnzr-39">
          <mxGeometry width="50" height="50" relative="1" as="geometry">
            <mxPoint x="10" y="1020" as="sourcePoint" />
            <mxPoint x="-30" y="990" as="targetPoint" />
            <Array as="points">
              <mxPoint x="-70" y="1000" />
            </Array>
          </mxGeometry>
        </mxCell>
        <mxCell id="brn8bcqJcwjxRZUSFnzr-43" value="" style="endArrow=classic;html=1;rounded=0;exitX=0;exitY=0.5;exitDx=0;exitDy=0;entryX=1;entryY=0.5;entryDx=0;entryDy=0;entryPerimeter=0;" edge="1" parent="1" source="brn8bcqJcwjxRZUSFnzr-35" target="brn8bcqJcwjxRZUSFnzr-39">
          <mxGeometry width="50" height="50" relative="1" as="geometry">
            <mxPoint x="-80" y="1040" as="sourcePoint" />
            <mxPoint x="-30" y="990" as="targetPoint" />
          </mxGeometry>
        </mxCell>
        <mxCell id="brn8bcqJcwjxRZUSFnzr-44" value="" style="endArrow=classic;html=1;rounded=0;exitX=0;exitY=0.5;exitDx=0;exitDy=0;entryX=0.819;entryY=0;entryDx=0;entryDy=0;entryPerimeter=0;" edge="1" parent="1" source="brn8bcqJcwjxRZUSFnzr-33" target="brn8bcqJcwjxRZUSFnzr-39">
          <mxGeometry width="50" height="50" relative="1" as="geometry">
            <mxPoint x="-80" y="1040" as="sourcePoint" />
            <mxPoint x="-110" y="780" as="targetPoint" />
            <Array as="points">
              <mxPoint x="-50" y="720" />
            </Array>
          </mxGeometry>
        </mxCell>
        <mxCell id="brn8bcqJcwjxRZUSFnzr-45" value="" style="endArrow=classic;html=1;rounded=0;exitX=0.542;exitY=1;exitDx=0;exitDy=0;exitPerimeter=0;entryX=0.2;entryY=0.86;entryDx=0;entryDy=0;entryPerimeter=0;" edge="1" parent="1" source="brn8bcqJcwjxRZUSFnzr-23" target="brn8bcqJcwjxRZUSFnzr-39">
          <mxGeometry width="50" height="50" relative="1" as="geometry">
            <mxPoint x="420" y="1040" as="sourcePoint" />
            <mxPoint x="-60" y="1180" as="targetPoint" />
            <Array as="points">
              <mxPoint x="560" y="1320" />
              <mxPoint x="-230" y="1320" />
            </Array>
          </mxGeometry>
        </mxCell>
        <mxCell id="brn8bcqJcwjxRZUSFnzr-46" value="" style="endArrow=classic;html=1;rounded=0;exitX=-0.008;exitY=0.383;exitDx=0;exitDy=0;entryX=0.535;entryY=1;entryDx=0;entryDy=0;entryPerimeter=0;exitPerimeter=0;" edge="1" parent="1" source="brn8bcqJcwjxRZUSFnzr-31" target="brn8bcqJcwjxRZUSFnzr-39">
          <mxGeometry width="50" height="50" relative="1" as="geometry">
            <mxPoint x="20" y="1130" as="sourcePoint" />
            <mxPoint x="-120" y="1090" as="targetPoint" />
            <Array as="points">
              <mxPoint x="-120" y="1170" />
            </Array>
          </mxGeometry>
        </mxCell>
      </root>
    </mxGraphModel>
  </diagram>
</mxfile>
